<?xml version="1.0" standalone="no"?>
<!DOCTYPE svg PUBLIC "-//W3C//DTD SVG 20010904//EN"
 "http://www.w3.org/TR/2001/REC-SVG-20010904/DTD/svg10.dtd">
<svg version="1.0" xmlns="http://www.w3.org/2000/svg"
 width="88.000000pt" height="78.000000pt" viewBox="0 0 88.000000 78.000000"
 preserveAspectRatio="xMidYMid meet">

<g transform="translate(0.000000,78.000000) scale(0.100000,-0.100000)"
fill="#000000" stroke="none">
<path d="M117 753 c-4 -3 -7 -26 -7 -50 l0 -43 110 0 110 0 0 34 c0 65 -2 66
-109 66 -54 0 -101 -3 -104 -7z"/>
<path d="M557 753 c-4 -3 -7 -26 -7 -50 l0 -43 110 0 110 0 0 34 c0 65 -2 66
-109 66 -54 0 -101 -3 -104 -7z"/>
<path d="M0 337 c0 -207 3 -286 12 -295 7 -7 31 -12 55 -12 32 0 43 -4 43 -15
0 -10 11 -15 35 -15 24 0 35 5 35 15 0 13 36 15 260 15 224 0 260 -2 260 -15
0 -10 11 -15 35 -15 24 0 35 5 35 15 0 11 11 15 43 15 24 0 48 5 55 12 9 9 12
88 12 295 l0 283 -440 0 -440 0 0 -283z m476 95 l-35 -102 50 0 c28 0 49 -4
47 -9 -5 -14 -238 -213 -238 -203 0 4 13 48 30 97 16 49 30 92 30 96 0 5 -23
9 -52 11 l-52 3 124 107 c69 58 126 105 127 104 2 -1 -13 -48 -31 -104z"/>
</g>
</svg>
