<?xml version="1.0" standalone="no"?>
<!DOCTYPE svg PUBLIC "-//W3C//DTD SVG 20010904//EN"
 "http://www.w3.org/TR/2001/REC-SVG-20010904/DTD/svg10.dtd">
<svg version="1.0" xmlns="http://www.w3.org/2000/svg"
 width="75.000000pt" height="92.000000pt" viewBox="0 0 75.000000 92.000000"
 preserveAspectRatio="xMidYMid meet">

<g transform="translate(0.000000,92.000000) scale(0.100000,-0.100000)"
fill="#000000" stroke="none">
<path d="M210 886 c-27 -44 -77 -75 -143 -90 l-52 -11 -3 -155 c-1 -85 2 -185
8 -222 15 -88 68 -196 127 -260 55 -58 149 -123 204 -139 34 -11 43 -9 113 26
56 27 92 55 138 104 119 126 150 230 146 484 l-3 162 -52 11 c-66 15 -116 46
-143 90 l-22 34 -148 0 -148 0 -22 -34z m292 -109 c19 -18 57 -44 84 -58 l49
-25 0 -150 c0 -146 -1 -150 -31 -215 -18 -37 -48 -85 -68 -107 -46 -50 -125
-102 -156 -102 -57 0 -178 108 -219 195 -32 69 -40 120 -41 255 l0 125 49 23
c27 12 64 37 83 56 32 32 35 33 124 35 90 1 92 1 126 -32z"/>
<path d="M279 722 c-26 -20 -61 -45 -79 -55 l-33 -18 5 -118 c4 -100 9 -126
32 -177 28 -62 88 -131 144 -165 l32 -21 33 21 c55 34 115 103 143 165 24 52
28 76 32 181 l5 122 -33 13 c-18 7 -54 31 -81 52 -43 33 -55 38 -101 38 -46
-1 -59 -6 -99 -38z m248 -168 c4 -11 -23 -45 -88 -110 -51 -52 -98 -94 -103
-94 -18 0 -106 94 -106 112 0 36 30 32 71 -8 l39 -38 78 77 c78 78 98 89 109
61z"/>
</g>
</svg>
