<?xml version="1.0" standalone="no"?>
<!DOCTYPE svg PUBLIC "-//W3C//DTD SVG 20010904//EN"
 "http://www.w3.org/TR/2001/REC-SVG-20010904/DTD/svg10.dtd">
<svg version="1.0" xmlns="http://www.w3.org/2000/svg"
 width="92.000000pt" height="92.000000pt" viewBox="0 0 92.000000 92.000000"
 preserveAspectRatio="xMidYMid meet">

<g transform="translate(0.000000,92.000000) scale(0.100000,-0.100000)"
fill="#000000" stroke="none">
<path d="M396 908 c-3 -7 -7 -26 -11 -41 -15 -72 -103 -101 -167 -56 l-30 22
-44 -44 c-46 -45 -54 -68 -29 -89 21 -17 29 -74 15 -101 -18 -35 -51 -59 -81
-59 -39 0 -50 -21 -47 -86 l3 -57 47 -14 c79 -23 107 -99 59 -164 l-23 -31 43
-44 c45 -46 68 -54 89 -29 17 21 74 29 101 15 34 -18 59 -51 59 -80 0 -15 5
-31 12 -38 16 -16 127 -16 132 1 3 6 7 25 11 40 15 72 103 101 167 56 l30 -22
44 44 c46 45 54 68 29 89 -21 17 -29 74 -15 101 18 35 51 59 81 59 39 0 50 21
47 86 l-3 57 -47 14 c-79 23 -107 99 -59 164 l23 31 -43 44 c-45 46 -68 54
-89 29 -17 -21 -74 -29 -101 -15 -34 18 -59 51 -59 81 0 14 -5 30 -12 37 -16
16 -127 16 -132 0z m174 -210 c60 -26 104 -70 131 -132 27 -62 29 -144 5 -201
l-17 -39 -56 56 c-56 57 -57 57 -54 112 4 87 -37 144 -120 166 -42 11 -89 4
-89 -13 0 -6 19 -30 41 -53 38 -38 41 -46 35 -78 -6 -34 -9 -36 -44 -36 -29 0
-44 8 -78 41 -23 23 -47 38 -53 35 -6 -4 -11 -26 -11 -49 1 -98 86 -174 185
-163 49 6 50 5 102 -46 29 -29 53 -55 53 -59 0 -15 -89 -42 -140 -42 -105 -1
-199 61 -241 157 -54 125 -3 277 113 337 82 42 153 44 238 7z"/>
</g>
</svg>
