<?xml version="1.0" standalone="no"?>
<!DOCTYPE svg PUBLIC "-//W3C//DTD SVG 20010904//EN"
 "http://www.w3.org/TR/2001/REC-SVG-20010904/DTD/svg10.dtd">
<svg version="1.0" xmlns="http://www.w3.org/2000/svg"
 width="48.000000pt" height="48.000000pt" viewBox="0 0 48.000000 48.000000"
 preserveAspectRatio="xMidYMid meet">

<g transform="translate(0.000000,48.000000) scale(0.100000,-0.100000)"
fill="#000000" stroke="none">
<path d="M220 349 c0 -63 -2 -70 -15 -59 -10 9 -19 10 -25 4 -7 -7 3 -22 25
-44 l35 -34 35 34 c22 22 32 37 25 44 -6 6 -15 5 -25 -4 -13 -11 -15 -4 -15
59 0 64 -2 71 -20 71 -18 0 -20 -7 -20 -71z"/>
<path d="M96 257 c-15 -56 -26 -121 -24 -142 l3 -40 165 0 165 0 3 40 c2 21
-9 86 -24 142 l-27 103 -39 0 c-27 0 -38 -4 -38 -15 0 -10 10 -15 28 -15 26 0
29 -4 44 -65 l15 -65 -127 0 -127 0 15 65 c15 61 18 65 44 65 18 0 28 5 28 15
0 11 -11 15 -38 15 l-39 0 -27 -103z m274 -122 l0 -25 -130 0 -130 0 0 25 0
25 130 0 130 0 0 -25z"/>
<path d="M320 135 c0 -8 5 -15 10 -15 6 0 10 7 10 15 0 8 -4 15 -10 15 -5 0
-10 -7 -10 -15z"/>
</g>
</svg>
