<?xml version="1.0" standalone="no"?>
<!DOCTYPE svg PUBLIC "-//W3C//DTD SVG 20010904//EN"
 "http://www.w3.org/TR/2001/REC-SVG-20010904/DTD/svg10.dtd">
<svg version="1.0" xmlns="http://www.w3.org/2000/svg"
 width="512.000000pt" height="512.000000pt" viewBox="0 0 512.000000 512.000000"
 preserveAspectRatio="xMidYMid meet">

<g transform="translate(0.000000,512.000000) scale(0.100000,-0.100000)"
fill="#000000" stroke="none">
<path d="M3730 4924 c-751 -106 -1366 -193 -1367 -194 -2 0 -3 -443 -3 -985
l0 -985 1380 0 1380 0 0 1180 c0 938 -3 1180 -12 1179 -7 -1 -627 -88 -1378
-195z"/>
<path d="M990 4540 c-536 -77 -978 -139 -982 -139 -5 -1 -8 -370 -8 -821 l0
-820 985 0 985 0 0 960 c0 528 -1 960 -2 959 -2 -1 -442 -63 -978 -139z"/>
<path d="M2 1533 l3 -827 965 -133 c531 -73 973 -133 983 -133 16 0 17 52 17
960 l0 960 -985 0 -985 0 2 -827z"/>
<path d="M2360 1376 c0 -542 4 -987 8 -990 9 -6 2701 -376 2732 -376 20 0 20
11 20 1175 l0 1175 -1380 0 -1380 0 0 -984z"/>
</g>
</svg>
