<?xml version="1.0" ?><svg viewBox="0 0 48 48" xmlns="http://www.w3.org/2000/svg"><title/><g data-name="Search Virus" id="Search_Virus"><path d="M28.51,24.27A15,15,0,1,0,1,16C1,30.89,20.39,36.56,28.51,24.27ZM16,27A11,11,0,1,1,27,16,11,11,0,0,1,16,27Z"/><path d="M32.29,26.64l-.7.7L30,25.7A16.83,16.83,0,0,1,25.7,30l1.64,1.64-.7.7L42,47l5-5Z"/><path d="M22,15c-2,0-.5.26-1.83-1.75l.78-.78a1,1,0,0,0-1.42-1.42l-.78.78C16.82,10.55,17,11.92,17,10a1,1,0,0,0-2,0c0,2,.26.5-1.75,1.83l-.78-.78a1,1,0,0,0-1.42,1.42l.78.78C10.55,15.18,11.92,15,10,15a1,1,0,0,0,0,2c2,0,.5-.26,1.83,1.75l-.78.78A1,1,0,0,0,12.47,21c1.42-1.42.15-.54,2.53-.05V22a1,1,0,0,0,2,0V20.9c2.32-.47,1.13-1.35,2.53.05A1,1,0,0,0,21,19.53l-.78-.78C21.45,16.82,20.08,17,22,17A1,1,0,0,0,22,15Zm-6,4a3,3,0,1,1,3-3A3,3,0,0,1,16,19Z"/><path d="M15,14a1,1,0,0,0,0,2A1,1,0,0,0,15,14Z"/><path d="M17,16a1,1,0,0,0,0,2A1,1,0,0,0,17,16Z"/></g></svg>